<?xml version="1.0" encoding="iso-8859-1"?>
<!-- Generator: Adobe Illustrator 19.0.0, SVG Export Plug-In . SVG Version: 6.00 Build 0)  -->
<svg xmlns="http://www.w3.org/2000/svg" xmlns:xlink="http://www.w3.org/1999/xlink" version="1.1" id="Capa_1" x="0px" y="0px" viewBox="0 0 384.97 384.97" style="enable-background:new 0 0 384.97 384.97;" xml:space="preserve" width="512px" height="512px">
<g>
	<g id="Arrow_Drop_Up_Circle">
		<path d="M192.485,384.97c106.3,0,192.485-86.185,192.485-192.485C384.97,86.173,298.785,0,192.485,0C86.173,0,0,86.173,0,192.485    C0,298.785,86.173,384.97,192.485,384.97z M192.485,23.688c92.874,0,168.424,75.935,168.424,168.797    c0,92.874-75.55,168.424-168.424,168.424S24.061,285.359,24.061,192.485S99.611,23.688,192.485,23.688z" fill="#FFFFFF"/>
		<path d="M275.999,228.576c10.671,0.289,16.602-12.872,8.926-20.476l-84.2-82.997c-4.644-4.596-12.548-4.596-17.191,0    L99.43,208.016c-6.22,5.931-3.188,20.56,8.842,20.56H275.999z M192.461,150.583l54.846,54.064H137.615L192.461,150.583z" fill="#FFFFFF"/>
	</g>
	<g>
	</g>
	<g>
	</g>
	<g>
	</g>
	<g>
	</g>
	<g>
	</g>
	<g>
	</g>
</g>
<g>
</g>
<g>
</g>
<g>
</g>
<g>
</g>
<g>
</g>
<g>
</g>
<g>
</g>
<g>
</g>
<g>
</g>
<g>
</g>
<g>
</g>
<g>
</g>
<g>
</g>
<g>
</g>
<g>
</g>
</svg>
