<?xml version="1.0" encoding="iso-8859-1"?>
<!-- Generator: Adobe Illustrator 19.0.0, SVG Export Plug-In . SVG Version: 6.00 Build 0)  -->
<svg xmlns="http://www.w3.org/2000/svg" xmlns:xlink="http://www.w3.org/1999/xlink" version="1.1" id="Capa_1" x="0px" y="0px" viewBox="0 0 384.97 384.97" style="enable-background:new 0 0 384.97 384.97;" xml:space="preserve" width="512px" height="512px">
<g>
	<g id="Arrow_Drop_Right_Circle">
		<path d="M0,192.485c0,106.3,86.185,192.485,192.485,192.485c106.312,0,192.485-86.185,192.485-192.485    C384.97,86.173,298.797,0,192.485,0C86.185,0,0,86.173,0,192.485z M361.282,192.485c0,92.874-75.935,168.424-168.797,168.424    c-92.874,0-168.424-75.55-168.424-168.424S99.611,24.061,192.485,24.061S361.282,99.611,361.282,192.485z" fill="#FFFFFF"/>
		<path d="M157.356,103.773c-0.674,1.612-0.95,3.32-0.902,5.041v167.726c-0.289,10.671,12.872,16.602,20.476,8.927l82.997-84.2    c4.596-4.644,4.596-12.548,0-17.191l-82.901-84.104C171.083,93.752,160.556,95.833,157.356,103.773    C156.695,105.385,159.137,99.358,157.356,103.773C156.695,105.385,159.137,99.358,157.356,103.773    C156.695,105.385,159.137,99.358,157.356,103.773z M234.447,192.677l-54.064,54.846V137.831L234.447,192.677z" fill="#FFFFFF"/>
	</g>
	<g>
	</g>
	<g>
	</g>
	<g>
	</g>
	<g>
	</g>
	<g>
	</g>
	<g>
	</g>
</g>
<g>
</g>
<g>
</g>
<g>
</g>
<g>
</g>
<g>
</g>
<g>
</g>
<g>
</g>
<g>
</g>
<g>
</g>
<g>
</g>
<g>
</g>
<g>
</g>
<g>
</g>
<g>
</g>
<g>
</g>
</svg>
