<?xml version="1.0" encoding="iso-8859-1"?>
<!-- Generator: Adobe Illustrator 19.0.0, SVG Export Plug-In . SVG Version: 6.00 Build 0)  -->
<svg xmlns="http://www.w3.org/2000/svg" xmlns:xlink="http://www.w3.org/1999/xlink" version="1.1" id="Capa_1" x="0px" y="0px" viewBox="0 0 384.97 384.97" style="enable-background:new 0 0 384.97 384.97;" xml:space="preserve" width="512px" height="512px">
<g>
	<g id="Arrow_Drop_Left_Circle">
		<path d="M384.97,192.485C384.97,86.185,298.785,0,192.485,0C86.173,0,0,86.185,0,192.485C0,298.797,86.173,384.97,192.485,384.97    C298.785,384.97,384.97,298.797,384.97,192.485z M23.688,192.485c0-92.874,75.923-168.424,168.797-168.424    s168.424,75.55,168.424,168.424s-75.55,168.424-168.424,168.424S23.688,285.359,23.688,192.485z" fill="#FFFFFF"/>
		<path d="M227.613,281.196c0.674-1.612,0.95-3.32,0.902-5.041V108.429c0.289-10.671-12.872-16.602-20.476-8.926l-82.997,84.2    c-4.596,4.644-4.596,12.548,0,17.191l82.913,84.104C213.887,291.218,224.413,289.136,227.613,281.196    C228.275,279.584,225.833,285.611,227.613,281.196C228.275,279.584,225.833,285.611,227.613,281.196    C228.275,279.584,225.833,285.611,227.613,281.196z M150.523,192.292l54.064-54.846v109.692L150.523,192.292z" fill="#FFFFFF"/>
	</g>
	<g>
	</g>
	<g>
	</g>
	<g>
	</g>
	<g>
	</g>
	<g>
	</g>
	<g>
	</g>
</g>
<g>
</g>
<g>
</g>
<g>
</g>
<g>
</g>
<g>
</g>
<g>
</g>
<g>
</g>
<g>
</g>
<g>
</g>
<g>
</g>
<g>
</g>
<g>
</g>
<g>
</g>
<g>
</g>
<g>
</g>
</svg>
