<?xml version="1.0" encoding="iso-8859-1"?>
<!-- Generator: Adobe Illustrator 16.0.0, SVG Export Plug-In . SVG Version: 6.00 Build 0)  -->
<!DOCTYPE svg PUBLIC "-//W3C//DTD SVG 1.1//EN" "http://www.w3.org/Graphics/SVG/1.1/DTD/svg11.dtd">
<svg xmlns="http://www.w3.org/2000/svg" xmlns:xlink="http://www.w3.org/1999/xlink" version="1.1" id="Capa_1" x="0px" y="0px" width="512px" height="512px" viewBox="0 0 346.223 346.223" style="enable-background:new 0 0 346.223 346.223;" xml:space="preserve">
<g>
	<g>
		<path d="M332.762,0.004H13.461C6.027,0.004,0,6.031,0,13.465V332.76c0,7.434,6.027,13.459,13.461,13.459h319.301    c7.434,0,13.461-6.025,13.461-13.459V13.465C346.223,6.031,340.195,0.004,332.762,0.004z M319.301,319.299H26.922V26.925h292.379    V319.299L319.301,319.299z" fill="#FFFFFF"/>
		<path d="M163.59,237.457c2.524,2.523,5.948,3.943,9.517,3.943c3.569,0,6.995-1.42,9.516-3.943l51.488-51.489    c5.258-5.258,5.258-13.777,0-19.035c-5.258-5.258-13.783-5.258-19.035,0l-28.508,28.513V82.871c0-7.434-6.027-13.461-13.46-13.461    c-7.434,0-13.46,6.027-13.46,13.461v112.575l-28.512-28.513c-5.251-5.258-13.782-5.258-19.034,0    c-5.258,5.258-5.258,13.777,0,19.035L163.59,237.457z" fill="#FFFFFF"/>
		<path d="M66.396,290.998h213.43c7.434,0,13.461-6.027,13.461-13.461s-6.027-13.461-13.461-13.461H66.396    c-7.434,0-13.46,6.027-13.46,13.461S58.963,290.998,66.396,290.998z" fill="#FFFFFF"/>
	</g>
</g>
<g>
</g>
<g>
</g>
<g>
</g>
<g>
</g>
<g>
</g>
<g>
</g>
<g>
</g>
<g>
</g>
<g>
</g>
<g>
</g>
<g>
</g>
<g>
</g>
<g>
</g>
<g>
</g>
<g>
</g>
</svg>
